<?xml version="1.0" encoding="utf-8"?>
<!-- Generator: Adobe Illustrator 19.0.0, SVG Export Plug-In . SVG Version: 6.00 Build 0)  -->
<svg version="1.1" id="Capa_1" xmlns="http://www.w3.org/2000/svg" xmlns:xlink="http://www.w3.org/1999/xlink" x="0px" y="0px"
	 viewBox="291 134 128 128" style="enable-background:new 291 134 128 128;" xml:space="preserve">
<style type="text/css">
	.st0{fill:#41596B;}
	.st1{fill:#F2F2F2;}
	.st2{fill:#F2705B;}
	.st3{fill:#FFD05C;}
	.st4{fill:#89D6F7;}
	.st5{fill:#65C5B8;}
	.st6{fill:#4FBFA8;}
	.st7{fill:#CDD5DF;}
</style>
<g>
	<path class="st0" d="M413.8,134H296.2c-3,0-5.4,2.4-5.4,5.4v35.2h128.4v-35.2C419.2,136.4,416.8,134,413.8,134z"/>
	<path class="st1" d="M290.8,174.6v82.1c0,3,2.4,5.4,5.4,5.4h117.6c3,0,5.4-2.4,5.4-5.4v-82.1H290.8z"/>
	<circle class="st2" cx="306.5" cy="154.3" r="7.6"/>
	<circle class="st3" cx="330.2" cy="154.3" r="7.6"/>
	<circle class="st4" cx="353.8" cy="154.3" r="7.6"/>
	<g>
		<polygon class="st5" points="326.9,242.6 302.6,218.3 326.9,194 335,202 318.7,218.3 335,234.6 		"/>
		<polygon class="st5" points="383.1,242.6 375,234.6 391.3,218.3 375,202 383.1,194 407.4,218.3 		"/>
	</g>
	<polygon class="st6" points="350.7,246.8 339.3,246.8 359.3,189.8 370.7,189.8 	"/>
	<rect x="290.8" y="174.6" class="st7" width="128.4" height="2.9"/>
</g>
</svg>
