<?xml version="1.0" encoding="iso-8859-1"?>
<svg version="1.1" xmlns="http://www.w3.org/2000/svg" xmlns:xlink="http://www.w3.org/1999/xlink" x="0px" y="0px"
	 viewBox="0 0 40 40" style="enable-background:new 0 0 40 40;" xml:space="preserve">
<g id="Layer_1">
	<g>
		<circle style="fill:#F78F8F;" cx="20" cy="7" r="5.5"/>
		<path style="fill:#C74343;" d="M20,2c2.757,0,5,2.243,5,5s-2.243,5-5,5s-5-2.243-5-5S17.243,2,20,2 M20,1c-3.314,0-6,2.686-6,6
			s2.686,6,6,6s6-2.686,6-6S23.314,1,20,1L20,1z"/>
	</g>
	<rect x="17" y="6" style="fill:#FFFFFF;" width="6" height="2"/>
	<g>
		<rect x="4.5" y="20.821" style="fill:#F5CE85;" width="4" height="17.679"/>
		<path style="fill:#967A44;" d="M8,21.321V38H5V21.321H8 M9,20.321H4V39h5V20.321L9,20.321z"/>
	</g>
	<g>
		<rect x="8.5" y="30.5" style="fill:#F5CE85;" width="23" height="3"/>
		<path style="fill:#967A44;" d="M31,31v2H9v-2H31 M32,30H8v4h24V30L32,30z"/>
	</g>
	<g>
		<rect x="31.5" y="20.821" style="fill:#F5CE85;" width="4" height="17.679"/>
		<path style="fill:#967A44;" d="M35,21.321V38h-3V21.321H35 M36,20.321h-5V39h5V20.321L36,20.321z"/>
	</g>
	<g>
		<rect x="1.5" y="12.5" style="fill:#F78F8F;" width="37" height="9"/>
		<path style="fill:#C74343;" d="M38,13v8H2v-8H38 M39,12H1v10h38V12L39,12z"/>
	</g>
	<polygon style="fill:#FFFFFF;" points="10.308,13 7.538,13 2,21 4.769,21 	"/>
	<polygon style="fill:#FFFFFF;" points="17.231,13 14.462,13 8.923,21 11.692,21 	"/>
	<polygon style="fill:#FFFFFF;" points="24.154,13 21.385,13 15.846,21 18.615,21 	"/>
	<polygon style="fill:#FFFFFF;" points="31.077,13 28.308,13 22.769,21 25.538,21 	"/>
	<polygon style="fill:#FFFFFF;" points="38,13 35.231,13 29.692,21 32.462,21 	"/>
	<polygon style="fill:#FFFFFF;" points="36.615,21 38,21 38,19 	"/>
	<polygon style="fill:#FFFFFF;" points="3.385,13 2,13 2,15 	"/>
</g>
</svg>
