<?xml version="1.0" encoding="utf-8"?>
<!-- Generator: Adobe Illustrator 19.0.0, SVG Export Plug-In . SVG Version: 6.00 Build 0)  -->
<svg version="1.1" id="Layer_1" xmlns="http://www.w3.org/2000/svg" xmlns:xlink="http://www.w3.org/1999/xlink" x="0px" y="0px"
	 viewBox="103 -58 512 512" style="enable-background:new 103 -58 512 512;" xml:space="preserve">
<style type="text/css">
	.st0{fill:#F14742;}
	.st1{fill:#CD3F39;}
	.st2{fill:#FFF1CD;}
	.st3{fill:#F99D88;}
</style>
<path class="st0" d="M547-58H203.9l-23.2,22.2v458l375.1-19.4v-452C555.7-54.1,551.8-58,547-58z"/>
<path class="st1" d="M203.9-58v480.2l-41.6,1.9V-36.7c0-11.7,9.5-21.3,21.3-21.3H203.9z"/>
<g>
	<path class="st2" d="M447.3,53.4c-2.1,0-4.2-0.8-5.9-2.3l-30-27.6l-30,27.6c-3.3,3.1-8.5,3.1-11.8,0l-30-27.6l-30,27.6
		c-3.3,3.1-8.5,3.1-11.8,0l-35.9-33.1c-3.5-3.3-3.8-8.8-0.5-12.3c3.3-3.5,8.8-3.8,12.3-0.5l30,27.6l30-27.6c3.3-3.1,8.5-3.1,11.8,0
		l30,27.6l30-27.6c3.3-3.1,8.5-3.1,11.8,0l30,27.6l30-27.6c3.5-3.3,9-3,12.3,0.5c3.3,3.5,3,9-0.5,12.3l-35.9,33.1
		C451.5,52.7,449.4,53.4,447.3,53.4z"/>
	<path class="st2" d="M192.3,402.7c-11.8,0-21.3,9.5-21.3,21.3s9.5,21.3,21.3,21.3H547v-42.6L192.3,402.7L192.3,402.7z"/>
</g>
<path class="st3" d="M547,454H192.3c-16.5,0-30-13.5-30-30c0-16.5,13.5-30,30-30H547c4.8,0,8.7,3.9,8.7,8.7s-3.9,8.7-8.7,8.7H192.3
	c-6.9,0-12.6,5.6-12.6,12.6c0,6.9,5.6,12.6,12.6,12.6H547c4.8,0,8.7,3.9,8.7,8.7C555.7,450.1,551.8,454,547,454z"/>
<path class="st2" d="M382.1,87.4c-3.4,2.4-13.5,9.6-18,19.4c35.6,106.9-50.1,115.4,8,199c-40.6-3.2-56.8-33.2-56.8-55.2
	c0-44.8,32.9-56.5,36.9-108.8c-6.4-5.8-11.1-8-11.1-8c-20.4,57.6-62.9,60-62.9,116.7c0,50.9,44,89.4,97.4,89.4
	c56.8,0,97.4-44.6,97.4-89.7C472.8,175,399.9,189,382.1,87.4z M396.9,298.1c22.6-32.4,22.6-66.9,0-98.7
	C445.5,220.3,445.5,276.8,396.9,298.1z"/>
</svg>
