<?xml version="1.0" encoding="utf-8"?>
<!-- Generator: Adobe Illustrator 19.0.0, SVG Export Plug-In . SVG Version: 6.00 Build 0)  -->
<svg version="1.1" id="Layer_1" xmlns="http://www.w3.org/2000/svg" xmlns:xlink="http://www.w3.org/1999/xlink" x="0px" y="0px"
	 viewBox="0 0 128 128" style="enable-background:new 0 0 128 128;" xml:space="preserve">
<style type="text/css">
	.st0{fill:#3B97D3;}
	.st1{fill:#FFFFFF;}
</style>
<g id="lwcjp2.tif">
	<g id="XMLID_33_">
		<g id="XMLID_31_">
			<path id="XMLID_27_" class="st0" d="M105.1,128H22.9C10.3,128,0,117.7,0,105.1V22.9C0,10.3,10.3,0,22.9,0h82.1
				C117.7,0,128,10.3,128,22.9v82.1C128,117.7,117.7,128,105.1,128z"/>
			<g id="XMLID_30_">
				<path id="XMLID_29_" class="st1" d="M87.5,0c6.4,3.6,9.1,12.1,10.4,18.9c1.6,8.1,1.5,16.3,1.5,24.5c0,16.8,0,33.6,0,50.4
					c0,9.2,0,18.5,0,27.7c-4.2-3.8-8.1-8-12.1-12c-4.1-4.1-8.3-8.2-12.4-12.3C66.7,89.1,58.6,81,50.4,73c-1-1-2.1-1.7-2.2-3.3
					c-0.1-1.6,0-3.2,0-4.8c0-3.2,0-6.5,0-9.7C58.9,65.8,69.5,76.4,80.2,87c3,3,6,6,9,9c0-14.8,0-29.6,0-44.4
					c0-7.1-0.2-14.3-1.1-21.3c-0.9-6.6-2.3-13.6-5.9-19.3c-1.7-2.8-4-5.2-6.7-6.9c-1.6-1-3.3-1.8-5.1-2.5c-0.8-0.3-1.7-0.6-2.6-0.8
					c-0.9-0.2-2-0.3-2.8-0.7C72.5,0,80,0,87.5,0C88.6,0.6,80,0,87.5,0z"/>
				<path id="XMLID_28_" class="st1" d="M40.5,128c-1.5-1.1-3-2.2-4.2-3.7c-1.1-1.4-2-3-2.8-4.6c-1.7-3.4-2.7-7.1-3.5-10.9
					c-1.6-8-1.5-16.2-1.5-24.4c0-16.7,0-33.3,0-50c0-9.4,0-18.7,0-28.1c4.3,3.8,8.2,8.1,12.3,12.1c4.2,4.2,8.4,8.3,12.6,12.5
					c8.2,8.1,16.3,16.2,24.5,24.3c1.1,1,1.8,1.6,1.8,3.2c0,1.7,0,3.4,0,5.1c0,3,0,6.1,0,9.1C69.1,62.2,58.5,51.6,47.8,41
					c-3-3-6-6-9.1-9c0,14.7,0,29.3,0,44c0,7.3,0.2,14.5,1.1,21.8c0.8,6.6,2.3,13.6,5.9,19.3c1.8,2.9,4.2,5.4,7.1,7.2
					c1.5,0.9,3.1,1.6,4.8,2.2c0.9,0.3,1.8,0.6,2.8,0.8c0.8,0.2,1.9,0.2,2.6,0.6C55.6,128,48.1,128,40.5,128
					C39.8,127.4,48.1,128,40.5,128z"/>
			</g>
		</g>
	</g>
</g>
</svg>
