<?xml version="1.0" encoding="utf-8"?>
<!-- Generator: Adobe Illustrator 19.0.0, SVG Export Plug-In . SVG Version: 6.00 Build 0)  -->
<svg version="1.1" id="Layer_1" xmlns="http://www.w3.org/2000/svg" xmlns:xlink="http://www.w3.org/1999/xlink" x="0px" y="0px"
	 viewBox="0 0 128 128" style="enable-background:new 0 0 128 128;" xml:space="preserve">
<style type="text/css">
	.st0{fill:#939598;}
	.st1{fill:#FFFFFF;}
</style>
<g id="XMLID_4_">
	<path id="XMLID_1_" class="st0" d="M54.3,125.4l-38.7-22.3C9.7,99.6,6,93.2,6,86.3V41.7c0-6.9,3.7-13.3,9.7-16.7L54.3,2.6
		c6-3.5,13.4-3.5,19.3,0l38.7,22.3c6,3.5,9.7,9.8,9.7,16.7v44.7c0,6.9-3.7,13.3-9.7,16.7l-38.7,22.3
		C67.7,128.9,60.3,128.9,54.3,125.4z"/>
	<path id="XMLID_5_" class="st1" d="M66.4,19.1c-1.2,0.8-4.8,3.4-6.4,6.9c12.6,38-17.8,41,2.8,70.7c-14.4-1.1-20.2-11.8-20.2-19.6
		c0-15.9,11.7-20.1,13.1-38.7c-2.3-2.1-4-2.8-4-2.8c-7.3,20.5-22.4,21.3-22.4,41.5c0,18.1,15.7,31.8,34.6,31.8
		c20.2,0,34.6-15.8,34.6-31.9C98.6,50.2,72.7,55.2,66.4,19.1z M71.6,94c8-11.5,8-23.8,0-35.1C88.9,66.4,88.9,86.4,71.6,94z"/>
</g>
</svg>
