<?xml version="1.0" encoding="iso-8859-1"?>
<!-- Generator: Adobe Illustrator 19.0.0, SVG Export Plug-In . SVG Version: 6.00 Build 0)  -->
<svg version="1.1" id="Layer_1" xmlns="http://www.w3.org/2000/svg" xmlns:xlink="http://www.w3.org/1999/xlink" x="0px" y="0px"
	 viewBox="0 0 512 512" style="enable-background:new 0 0 512 512;" xml:space="preserve">
<g>
	<g>
		<path style="fill:#996459;" d="M416,40H96c-22.055,0-40,17.945-40,40v392c0,22.055,17.945,40,40,40h320c22.055,0,40-17.945,40-40
			V80C456,57.945,438.055,40,416,40z"/>
	</g>
	<g>
		<path style="fill:#FFFFFF;" d="M415.6,72c4.639,0,8.4,3.728,8.4,8.327v391.347c0,4.599-3.761,8.327-8.4,8.327H96.4
			c-4.639,0-8.4-3.728-8.4-8.327V80.326C88,75.728,91.761,72,96.4,72H415.6z"/>
	</g>
	<g>
		<g>
			<path style="fill:#B4B6BC;" d="M200,216h-48c-8.82,0-16-7.18-16-16v-48c0-8.82,7.18-16,16-16h48c8.82,0,16,7.18,16,16v48
				C216,208.82,208.82,216,200,216z M152,152v48h48.016L200,152H152z"/>
		</g>
	</g>
	<g>
		<g>
			<path style="fill:#5C546A;" d="M264,160h-24c-4.422,0-8-3.578-8-8s3.578-8,8-8h24c4.422,0,8,3.578,8,8S268.422,160,264,160z"/>
		</g>
	</g>
	<g>
		<g>
			<path style="fill:#868491;" d="M360,192H240c-4.422,0-8-3.578-8-8s3.578-8,8-8h120c4.422,0,8,3.578,8,8S364.422,192,360,192z"/>
		</g>
	</g>
	<g>
		<g>
			<path style="fill:#5C546A;" d="M320,272h-80c-4.422,0-8-3.578-8-8s3.578-8,8-8h80c4.422,0,8,3.578,8,8S324.422,272,320,272z"/>
		</g>
	</g>
	<g>
		<g>
			<path style="fill:#868491;" d="M360,304H240c-4.422,0-8-3.578-8-8s3.578-8,8-8h120c4.422,0,8,3.578,8,8S364.422,304,360,304z"/>
		</g>
	</g>
	<g>
		<g>
			<path style="fill:#5C546A;" d="M272,376h-32c-4.422,0-8-3.578-8-8s3.578-8,8-8h32c4.422,0,8,3.578,8,8S276.422,376,272,376z"/>
		</g>
	</g>
	<g>
		<g>
			<path style="fill:#868491;" d="M360,408H240c-4.422,0-8-3.578-8-8s3.578-8,8-8h120c4.422,0,8,3.578,8,8S364.422,408,360,408z"/>
		</g>
	</g>
	<g>
		<g>
			<path style="fill:#868491;" d="M288,40c-4.422,0-8-3.578-8-8v-8c0-4.414-3.586-8-8-8h-32c-4.414,0-8,3.586-8,8v8
				c0,4.422-3.578,8-8,8s-8-3.578-8-8v-8c0-13.234,10.766-24,24-24h32c13.234,0,24,10.766,24,24v8C296,36.422,292.422,40,288,40z"/>
		</g>
	</g>
	<g>
		<path style="fill:#B4B6BC;" d="M344,24H168c-4.418,0-8,3.582-8,8v24c0,22.091,17.909,40,40,40h112c22.091,0,40-17.909,40-40V32
			C352,27.582,348.418,24,344,24z"/>
	</g>
	<g>
		<g>
			<path style="fill:#B4B6BC;" d="M200,320h-48c-8.82,0-16-7.18-16-16v-48c0-8.82,7.18-16,16-16h48c8.82,0,16,7.18,16,16v48
				C216,312.82,208.82,320,200,320z M152,256v48h48.016L200,256H152z"/>
		</g>
	</g>
	<g>
		<g>
			<path style="fill:#B4B6BC;" d="M200,424h-48c-8.82,0-16-7.18-16-16v-48c0-8.82,7.18-16,16-16h48c8.82,0,16,7.18,16,16v48
				C216,416.82,208.82,424,200,424z M152,360v48h48.016L200,360H152z"/>
		</g>
	</g>
	<g>
		<g>
			<path style="fill:#FF4F19;" d="M184,296c-2.047,0-4.094-0.781-5.656-2.344l-16-16c-3.125-3.125-3.125-8.188,0-11.313
				s8.188-3.125,11.313,0L184,276.687l34.344-34.344c3.125-3.125,8.188-3.125,11.313,0s3.125,8.187,0,11.312l-40,40
				C188.094,295.219,186.047,296,184,296z"/>
		</g>
	</g>
</g>
<g>
</g>
<g>
</g>
<g>
</g>
<g>
</g>
<g>
</g>
<g>
</g>
<g>
</g>
<g>
</g>
<g>
</g>
<g>
</g>
<g>
</g>
<g>
</g>
<g>
</g>
<g>
</g>
<g>
</g>
</svg>
