<?xml version="1.0" encoding="utf-8"?>
<svg version="1.1" id="Layer_1" xmlns="http://www.w3.org/2000/svg" xmlns:xlink="http://www.w3.org/1999/xlink" x="0px" y="0px"
	 viewBox="0 0 95.8 95.8" style="enable-background:new 0 0 95.8 95.8;" xml:space="preserve">
<style type="text/css">
	.st0{fill:#9C4C64;}
</style>
<path class="st0" d="M50.7,0.1c-1.3,0.9-5.1,3.6-6.8,7.3c13.4,40.3-18.9,43.5,3,75c-15.3-1.2-21.4-12.5-21.4-20.8
	c0-16.9,12.4-21.3,13.9-41c-2.4-2.2-4.2-3-4.2-3c-7.7,21.7-23.7,22.6-23.7,44c0,19.2,16.6,33.7,36.7,33.7
	c21.4,0,36.7-16.8,36.7-33.8C84.9,33.1,57.4,38.4,50.7,0.1z M56.3,79.5c8.5-12.2,8.5-25.2,0-37.2C74.6,50.2,74.6,71.5,56.3,79.5z"/>
</svg>
