<?xml version="1.0" encoding="iso-8859-1"?>
<!-- Generator: Adobe Illustrator 19.0.0, SVG Export Plug-In . SVG Version: 6.00 Build 0)  -->
<svg version="1.1" id="Layer_1" xmlns="http://www.w3.org/2000/svg" xmlns:xlink="http://www.w3.org/1999/xlink" x="0px" y="0px"
	 viewBox="0 0 512.001 512.001" style="enable-background:new 0 0 512.001 512.001;" xml:space="preserve">
<path style="fill:#C5D8DF;" d="M504.008,223.961c-4.121-2.587-36.412-21.931-49.246-27.802l-15.903-38.392
	c4.725-12.695,13.752-48.308,15.164-54.482c1.307-5.724-0.418-11.718-4.57-15.87l-24.868-24.867
	c-4.151-4.152-10.147-5.878-15.87-4.57c-4.682,1.071-41.226,10.23-54.483,15.164L315.84,57.239
	c-5.618-12.28-24.386-43.807-27.802-49.246c-3.121-4.973-8.581-7.992-14.453-7.992h-35.17c-5.872,0-11.332,3.019-14.454,7.992
	c-2.587,4.121-21.931,36.412-27.802,49.246l-38.392,15.903c-12.695-4.725-48.308-13.752-54.482-15.164
	c-5.724-1.307-11.718,0.419-15.87,4.57L62.547,87.416c-4.152,4.152-5.878,10.146-4.57,15.87c1.071,4.682,10.23,41.226,15.164,54.482
	L57.238,196.16c-12.28,5.618-43.807,24.386-49.246,27.802C3.019,227.083,0,232.543,0,238.415v35.17
	c0,5.872,3.019,11.332,7.992,14.454c4.121,2.587,36.412,21.931,49.246,27.802l15.903,38.392
	c-4.725,12.695-13.752,48.308-15.164,54.482c-1.307,5.724,0.418,11.718,4.57,15.87l24.868,24.868
	c4.152,4.152,10.148,5.879,15.87,4.57c4.682-1.071,41.226-10.23,54.482-15.164l38.392,15.903
	c5.618,12.28,24.386,43.807,27.802,49.246c3.122,4.973,8.582,7.992,14.454,7.992h35.17c5.872,0,11.332-3.019,14.454-7.992
	c2.587-4.121,21.931-36.412,27.802-49.246l38.392-15.903c12.695,4.725,48.308,13.752,54.482,15.164
	c5.726,1.31,11.719-0.418,15.87-4.57l24.868-24.868c4.152-4.152,5.878-10.146,4.57-15.87c-1.071-4.682-10.23-41.226-15.164-54.482
	l15.903-38.392c12.28-5.618,43.807-24.386,49.246-27.802c4.973-3.122,7.992-8.582,7.992-14.454v-35.17
	C512,232.543,508.981,227.083,504.008,223.961z M256,367.605c-61.539,0-111.605-50.066-111.605-111.605S194.461,144.396,256,144.396
	s111.605,50.066,111.605,111.605S317.539,367.605,256,367.605z"/>
<path style="fill:#9CC2D0;" d="M504.013,223.961c-4.13-2.583-36.42-21.925-49.254-27.796l-15.895-38.4
	c4.722-12.698,13.744-48.31,15.155-54.477c1.308-5.723-0.41-11.719-4.563-15.872l-24.872-24.872
	c-4.153-4.153-10.149-5.871-15.872-4.562c-4.676,1.07-41.222,10.229-54.477,15.155l-38.4-15.895
	c-5.609-12.288-24.383-43.804-27.796-49.254c-3.117-4.972-8.579-7.987-14.45-7.987H256v144.395
	c61.542,0,111.605,50.062,111.605,111.605S317.542,367.605,256,367.605v144.395h17.59c5.871,0,11.332-3.015,14.45-7.987
	c2.583-4.13,21.925-36.42,27.796-49.254l38.4-15.895c12.698,4.722,48.31,13.744,54.477,15.155c5.723,1.32,11.719-0.41,15.872-4.563
	l24.872-24.872c4.153-4.153,5.871-10.149,4.563-15.872c-1.07-4.676-10.229-41.222-15.155-54.477l15.895-38.4
	c12.288-5.609,43.804-24.383,49.254-27.796c4.972-3.118,7.987-8.579,7.987-14.45v-35.18C512,232.54,508.985,227.078,504.013,223.961
	z"/>
<g>
</g>
<g>
</g>
<g>
</g>
<g>
</g>
<g>
</g>
<g>
</g>
<g>
</g>
<g>
</g>
<g>
</g>
<g>
</g>
<g>
</g>
<g>
</g>
<g>
</g>
<g>
</g>
<g>
</g>
</svg>
