<?xml version="1.0" encoding="utf-8"?>
<!-- Generator: Adobe Illustrator 22.0.0, SVG Export Plug-In . SVG Version: 6.00 Build 0)  -->
<svg version="1.1" id="Layer_1" xmlns="http://www.w3.org/2000/svg" xmlns:xlink="http://www.w3.org/1999/xlink" x="0px" y="0px"
	 viewBox="0 0 505.3 505.3" style="enable-background:new 0 0 505.3 505.3;" xml:space="preserve">
<style type="text/css">
	.st0{fill:#D07C3F;}
	.st1{fill:#E6E7E8;}
	.st2{fill:#DDDDDC;}
	.st3{fill:url(#XMLID_3_);}
	.st4{fill:#EEC65D;}
	.st5{fill:#DCA34F;}
	.st6{fill:#CBA94F;}
	.st7{fill:#FFFFFF;}
</style>
<path class="st0" d="M24,90.6h456.9V484H24.4L24,90.6z"/>
<g>
	<circle id="XMLID_2_" class="st1" cx="244.6" cy="159" r="158"/>
	<circle id="XMLID_14_" class="st2" cx="244.6" cy="159" r="138.9"/>
	
		<linearGradient id="XMLID_3_" gradientUnits="userSpaceOnUse" x1="181.5987" y1="395.4935" x2="312.0993" y2="264.9929" gradientTransform="matrix(1 0 0 -1 0 508)">
		<stop  offset="0" style="stop-color:#AA7AB4"/>
		<stop  offset="0.5" style="stop-color:#5C7DB9"/>
		<stop  offset="1" style="stop-color:#9BD9EB"/>
	</linearGradient>
	<path id="XMLID_30_" class="st3" d="M250.5,45.2c-3.1,2.1-12.2,8.6-16.3,17.4c32,96.4-45.2,104.1,7.2,179.4
		c-36.6-2.8-51.2-29.9-51.2-49.8c0-40.4,29.6-50.9,33.2-98.1c-5.7-5.3-10.1-7.2-10.1-7.2c-18.4,51.9-56.7,54-56.7,105.2
		c0,45.9,39.7,80.6,87.8,80.6c51.2,0,87.8-40.1,87.8-80.8C332.3,124.1,266.6,136.8,250.5,45.2z M264,235c20.3-29.2,20.3-60.3,0-88.9
		C307.7,165,307.7,216,264,235z"/>
</g>
<path class="st4" d="M0.4,185.1V476c0,18.5,15,28.8,33.5,28.8H471c18.5,0,33.5-10.2,33.5-28.8V185.1
	C504.5,185.5,0.8,185.1,0.4,185.1z M71.3,122.5L24,90.6v78.8h47.3L71.3,122.5L71.3,122.5z M480.9,90.6l-47.3,31.5v47.3h47.3V90.6z"
	/>
<path class="st5" d="M71.3,185.1v-63L0,185.1H71.3z M433.6,122.1v63h71.7L433.6,122.1z"/>
<path class="st0" d="M112.2,275.7c-11.8,0-21.7,9.8-21.7,21.7c0,11.8,9.5,21.7,21.7,21.7c11.8,0,21.7-9.8,21.7-21.7
	C134.3,285.5,124.5,275.7,112.2,275.7z M376.1,275.7c-11.8,0-21.7,9.8-21.7,21.7c0,11.8,9.5,21.7,21.7,21.7
	c11.8,0,21.7-9.8,21.7-21.7C398.2,285.5,388.3,275.7,376.1,275.7z"/>
<path class="st6" d="M244.6,456.9c-78.4,0-141.8-69.3-141.8-154.8c0-5.9,4.3-10.6,9.8-10.6s9.8,4.7,9.8,10.6
	c0,73.6,54.7,133.1,122.1,133.1s122.1-59.9,122.1-133.1c0-5.9,4.3-10.6,9.8-10.6s9.8,4.7,9.8,10.6
	C386.4,387.6,322.6,456.9,244.6,456.9z"/>
<path class="st7" d="M244.6,444.7c-78.4,0-141.8-64.2-141.8-143.4c0-5.5,4.3-9.8,9.8-9.8s9.8,4.3,9.8,9.8
	c0,68.1,54.7,123.7,122.1,123.7s122.1-55.5,122.1-123.7c0-5.5,4.3-9.8,9.8-9.8s9.8,4.3,9.8,9.8C386.4,380.5,322.6,444.7,244.6,444.7
	z"/>
</svg>
