<?xml version="1.0" encoding="utf-8"?>
<!-- Generator: Adobe Illustrator 19.0.0, SVG Export Plug-In . SVG Version: 6.00 Build 0)  -->
<svg version="1.1" id="Layer_1" xmlns="http://www.w3.org/2000/svg" xmlns:xlink="http://www.w3.org/1999/xlink" x="0px" y="0px"
	 viewBox="0 0 512 512" style="enable-background:new 0 0 512 512;" xml:space="preserve">
<style type="text/css">
	.st0{fill:#F1F1F2;}
	.st1{fill:#E6E7E8;}
	.st2{fill:#DDDDDC;}
	.st3{fill:url(#XMLID_54_);}
	.st4{fill:#404041;}
	.st5{fill:url(#XMLID_55_);}
	.st6{fill:url(#XMLID_56_);}
</style>
<g id="XMLID_1_">
	<circle id="XMLID_3_" class="st0" cx="256.2" cy="211.8" r="196.4"/>
	<circle id="XMLID_2_" class="st1" cx="256.2" cy="211.8" r="177.5"/>
	<circle id="XMLID_14_" class="st2" cx="256.2" cy="211.8" r="156"/>
	<linearGradient id="XMLID_54_" gradientUnits="userSpaceOnUse" x1="185.452" y1="159.599" x2="332.1767" y2="306.3237">
		<stop  offset="0" style="stop-color:#AA7AB4"/>
		<stop  offset="0.5" style="stop-color:#5C7DB9"/>
		<stop  offset="1" style="stop-color:#9BD9EB"/>
	</linearGradient>
	<path id="XMLID_30_" class="st3" d="M262.9,83.9c-3.5,2.4-13.7,9.7-18.3,19.6c36,108.3-50.8,116.9,8.1,201.5
		c-41.1-3.2-57.5-33.6-57.5-55.9c0-45.4,33.3-57.2,37.3-110.2c-6.4-5.9-11.3-8.1-11.3-8.1c-20.7,58.3-63.7,60.7-63.7,118.2
		c0,51.6,44.6,90.5,98.6,90.5c57.5,0,98.6-45.1,98.6-90.8C354.8,172.6,280.9,186.8,262.9,83.9z M278,297.2
		c22.8-32.8,22.8-67.7,0-99.9C327.1,218.5,327.1,275.8,278,297.2z"/>
	<g id="XMLID_4_">
		<path id="XMLID_5_" class="st4" d="M139.9,466.8c0,9.6-2.4,16.9-7.1,22.1c-4.8,5.1-11.6,7.7-20.4,7.7S96.7,494,92,488.9
			c-4.8-5.1-7.1-12.5-7.1-22.2c0-9.6,2.4-17,7.1-22.1c4.8-5.1,11.6-7.6,20.5-7.6c8.9,0,15.7,2.6,20.4,7.7
			C137.6,449.8,139.9,457.2,139.9,466.8z M97.7,466.8c0,6.5,1.2,11.3,3.7,14.6c2.5,3.3,6.1,4.9,11,4.9c9.8,0,14.7-6.5,14.7-19.5
			c0-13-4.9-19.6-14.6-19.6c-4.9,0-8.6,1.6-11,4.9C98.9,455.4,97.7,460.3,97.7,466.8z"/>
		<path id="XMLID_11_" class="st4" d="M191.8,495.8h-12.1v-25.9c0-3.2-0.6-5.6-1.7-7.2c-1.1-1.6-2.9-2.4-5.4-2.4
			c-3.4,0-5.8,1.1-7.3,3.4c-1.5,2.3-2.3,6-2.3,11.2v20.8H151v-44.3h9.2l1.6,5.7h0.7c1.3-2.1,3.2-3.8,5.6-4.8c2.4-1.1,5-1.6,8.1-1.6
			c5.1,0,9.1,1.4,11.7,4.2c2.7,2.8,4,6.8,4,12.1V495.8z"/>
		<path id="XMLID_13_" class="st4" d="M203.7,440.1c0-3.9,2.2-5.9,6.6-5.9c4.4,0,6.6,2,6.6,5.9c0,1.9-0.5,3.3-1.6,4.4
			c-1.1,1-2.7,1.6-4.9,1.6C205.9,446,203.7,444,203.7,440.1z M216.3,495.8h-12.1v-44.3h12.1V495.8z"/>
		<path id="XMLID_17_" class="st4" d="M269.2,473.6c0,7.2-1.9,12.8-5.7,16.9c-3.8,4.1-9.1,6.1-15.9,6.1c-4.2,0-8-0.9-11.2-2.8
			c-3.2-1.9-5.7-4.5-7.5-8c-1.7-3.5-2.6-7.5-2.6-12.2c0-7.2,1.9-12.9,5.7-16.9c3.8-4,9.1-6,15.9-6c4.2,0,8,0.9,11.2,2.8
			c3.2,1.8,5.7,4.5,7.5,8C268.4,464.9,269.2,468.9,269.2,473.6z M238.6,473.6c0,4.4,0.7,7.7,2.2,9.9c1.4,2.2,3.8,3.4,7,3.4
			c3.2,0,5.5-1.1,6.9-3.3c1.4-2.2,2.1-5.5,2.1-10c0-4.4-0.7-7.7-2.1-9.9c-1.4-2.2-3.8-3.3-7-3.3c-3.2,0-5.5,1.1-7,3.3
			C239.3,465.9,238.6,469.2,238.6,473.6z"/>
		<path id="XMLID_20_" class="st4" d="M320.1,495.8H308v-25.9c0-3.2-0.6-5.6-1.7-7.2c-1.1-1.6-2.9-2.4-5.4-2.4
			c-3.4,0-5.8,1.1-7.3,3.4c-1.5,2.3-2.3,6-2.3,11.2v20.8h-12.1v-44.3h9.2l1.6,5.7h0.7c1.3-2.1,3.2-3.8,5.6-4.8
			c2.4-1.1,5-1.6,8.1-1.6c5.1,0,9.1,1.4,11.7,4.2c2.7,2.8,4,6.8,4,12.1V495.8z"/>
		<linearGradient id="XMLID_55_" gradientUnits="userSpaceOnUse" x1="336.7205" y1="446.3375" x2="377.5713" y2="487.1883">
			<stop  offset="0" style="stop-color:#AA7AB4"/>
			<stop  offset="0.5" style="stop-color:#5C7DB9"/>
			<stop  offset="1" style="stop-color:#9BD9EB"/>
		</linearGradient>
		<path id="XMLID_22_" class="st5" d="M383,466.8c0,9.2-2.3,16.4-6.9,21.8c-4.6,5.3-10.9,8-19,8c-8,0-14.4-2.7-19-8
			c-4.6-5.3-6.9-12.6-6.9-21.9c0-9.2,2.3-16.5,6.9-21.8c4.6-5.3,11-7.9,19-7.9c8.1,0,14.4,2.7,19,8C380.7,450.3,383,457.6,383,466.8
			z M335.7,466.8c0,8.3,1.8,14.7,5.5,19.2c3.7,4.5,9,6.8,15.9,6.8c7,0,12.3-2.2,16-6.7c3.7-4.5,5.5-10.9,5.5-19.3
			c0-8.3-1.8-14.7-5.5-19.2c-3.7-4.4-9-6.7-15.9-6.7c-6.9,0-12.2,2.2-15.9,6.7C337.5,452.1,335.7,458.5,335.7,466.8z"/>
		<linearGradient id="XMLID_56_" gradientUnits="userSpaceOnUse" x1="390.8688" y1="448.4668" x2="428.8995" y2="486.4975">
			<stop  offset="0" style="stop-color:#AA7AB4"/>
			<stop  offset="0.5" style="stop-color:#5C7DB9"/>
			<stop  offset="1" style="stop-color:#9BD9EB"/>
		</linearGradient>
		<path id="XMLID_27_" class="st6" d="M428.2,480.9c0,4.8-1.8,8.7-5.3,11.5c-3.6,2.8-8.3,4.2-14.2,4.2c-7.1,0-12.5-0.8-16.3-2.3v-4
			c4.2,1.8,9.5,2.7,16,2.7c4.7,0,8.5-1.1,11.3-3.3s4.2-5,4.2-8.6c0-2.2-0.5-4-1.4-5.4c-0.9-1.4-2.4-2.8-4.5-3.9
			c-2.1-1.2-5.1-2.5-9.2-3.8c-5.9-2-10-4.2-12.3-6.6c-2.3-2.4-3.4-5.5-3.4-9.4c0-4.3,1.7-7.9,5.1-10.6c3.4-2.7,7.8-4.1,13.1-4.1
			c5.4,0,10.5,1,15.3,3.1l-1.5,3.5c-4.8-2-9.4-3-13.8-3c-4.3,0-7.7,1-10.2,3c-2.5,2-3.8,4.7-3.8,8.1c0,2.1,0.4,3.9,1.2,5.3
			c0.8,1.4,2.1,2.6,3.8,3.7c1.8,1.1,4.8,2.4,9.1,3.9c4.5,1.6,7.9,3.1,10.2,4.5c2.3,1.5,3.9,3.1,5,5
			C427.7,476,428.2,478.2,428.2,480.9z"/>
	</g>
</g>
</svg>
